<svg xmlns="http://www.w3.org/2000/svg" xml:space="preserve" width="24" height="24" id="fi">
  <path d="M18.1 5.2c1.2 0 2.1-.9 2.1-2.1 0-1.1-.9-2.1-2.1-2.1C17 1 16 2 16 3.1c0 1.2 1 2.1 2.1 2.1zM22.2 20.1h-1.5c-.3 0-.5-.2-.5-.5V7.9H9c-.3 0-.5-.2-.5-.5v-.5c0-1.8 1.1-2.2 2.8-2.2h.7l-.1-3.2h-.3c-1.4 0-2.3 0-3.5.2C5.4 2.3 4 3.9 4 6.3v1.2c0 .3-.2.5-.5.5H1.8l.1 2.9h1.7c.3 0 .5.2.5.5v8.3c0 .1-.1.3-.1.4-.1.1-.2.1-.4.1H2v2.9h8.8l-.1-2.9H8.9c-.3 0-.5-.2-.5-.5v-1.1c-.1-2.7-.1-4.2 0-6.7h-.5c-.3 0-.5-.2-.5-.5s.2-.5.5-.5h7.4c.2 0 .3 0 .4.1.1.1.1.2.1.4v8.2c0 .3-.2.5-.5.5h-1.5V23h8.3v-1.3c.1-.5.1-.9.1-1.6z"></path>
</svg>
